<svg data-v-fde0c5aa="" xmlns="http://www.w3.org/2000/svg" viewBox="0 0 300 300" class="iconLeft"><!----><defs data-v-fde0c5aa=""><!----></defs><rect data-v-fde0c5aa="" fill="#E6F2FE" x="0" y="0" width="300px" height="300px" class="logo-background-square"></rect><defs data-v-fde0c5aa=""><!----></defs><g data-v-fde0c5aa="" id="57a4b8cb-3501-4e71-b12c-2ae6e39f67e5" fill="#193655" transform="matrix(3.798513466893174,0,0,3.798513466893174,121.12634198110304,116.17423678035645)"><path d="M1.16 2.90L2.02 2.90L2.02 3.72L1.16 3.72L1.16 2.90ZM1.23 5.50L1.95 5.50L1.95 12.67L1.23 12.67L1.23 5.50ZM4.99 12.67L4.27 12.67L4.27 5.15L4.27 5.15Q4.27 2.54 7.16 2.54L7.16 2.54L7.16 2.54Q8.04 2.54 8.76 2.82L8.76 2.82L8.76 3.43L8.76 3.43Q8.08 3.16 7.15 3.16L7.15 3.16L7.15 3.16Q4.99 3.16 4.99 5.16L4.99 5.16L4.99 5.50L7.69 5.50L7.69 6.11L4.99 6.11L4.99 12.67ZM8.48 12.33L8.48 12.33L8.48 11.65L8.48 11.65Q9.68 12.06 10.83 12.06L10.83 12.06L10.83 12.06Q13.10 12.06 13.10 10.62L13.10 10.62L13.10 10.62Q13.10 9.46 11.42 9.46L11.42 9.46L10.51 9.46L10.51 9.46Q8.25 9.46 8.25 7.55L8.25 7.55L8.25 7.55Q8.25 5.50 11.24 5.50L11.24 5.50L11.24 5.50Q12.39 5.50 13.58 5.84L13.58 5.84L13.58 6.52L13.58 6.52Q12.39 6.11 11.24 6.11L11.24 6.11L11.24 6.11Q8.97 6.11 8.97 7.55L8.97 7.55L8.97 7.55Q8.97 8.78 10.51 8.78L10.51 8.78L11.42 8.78L11.42 8.78Q13.82 8.78 13.82 10.62L13.82 10.62L13.82 10.62Q13.82 12.67 10.83 12.67L10.83 12.67L10.83 12.67Q9.68 12.67 8.48 12.33ZM15.25 10.64L15.25 10.64L15.25 10.64Q15.25 8.50 18.09 8.50L18.09 8.50L18.09 8.50Q19.10 8.50 20.24 8.64L20.24 8.64L20.24 7.76L20.24 7.76Q20.24 6.11 18.17 6.11L18.17 6.11L18.17 6.11Q16.99 6.11 15.83 6.45L15.83 6.45L15.83 5.84L15.83 5.84Q16.99 5.50 18.17 5.50L18.17 5.50L18.17 5.50Q20.96 5.50 20.96 7.72L20.96 7.72L20.96 12.67L20.52 12.67L20.36 11.96L20.36 11.96Q19.01 12.67 17.75 12.67L17.75 12.67L17.75 12.67Q15.25 12.67 15.25 10.64ZM18.09 9.12L18.09 9.12L18.09 9.12Q15.97 9.12 15.97 10.62L15.97 10.62L15.97 10.62Q15.97 12.06 17.75 12.06L17.75 12.06L17.75 12.06Q19.06 12.06 20.24 11.36L20.24 11.36L20.24 9.26L20.24 9.26Q19.10 9.12 18.09 9.12ZM28.36 11.62L28.36 6.30L28.36 6.30Q27.36 6.14 26.41 6.14L26.41 6.14L26.41 6.14Q23.50 6.14 23.50 9.03L23.50 9.03L23.50 9.03Q23.50 11.99 26.22 11.99L26.22 11.99L26.22 11.99Q27.20 11.99 28.36 11.62L28.36 11.62ZM29.07 5.79L29.07 12.67L29.07 12.67Q29.07 15.27 25.91 15.27L25.91 15.27L25.91 15.27Q24.58 15.27 23.56 14.93L23.56 14.93L23.56 14.31L23.56 14.31Q24.60 14.66 25.92 14.66L25.92 14.66L25.92 14.66Q28.36 14.66 28.36 12.67L28.36 12.67L28.36 12.33L28.36 12.33Q27.14 12.67 26.21 12.67L26.21 12.67L26.21 12.67Q22.80 12.67 22.80 9.04L22.80 9.04L22.80 9.04Q22.80 5.50 26.46 5.50L26.46 5.50L26.46 5.50Q27.85 5.50 29.07 5.79L29.07 5.79ZM30.85 10.64L30.85 10.64L30.85 10.64Q30.85 8.50 33.69 8.50L33.69 8.50L33.69 8.50Q34.70 8.50 35.84 8.64L35.84 8.64L35.84 7.76L35.84 7.76Q35.84 6.11 33.77 6.11L33.77 6.11L33.77 6.11Q32.59 6.11 31.43 6.45L31.43 6.45L31.43 5.84L31.43 5.84Q32.59 5.50 33.77 5.50L33.77 5.50L33.77 5.50Q36.56 5.50 36.56 7.72L36.56 7.72L36.56 12.67L36.12 12.67L35.96 11.96L35.96 11.96Q34.61 12.67 33.35 12.67L33.35 12.67L33.35 12.67Q30.85 12.67 30.85 10.64ZM33.69 9.12L33.69 9.12L33.69 9.12Q31.57 9.12 31.57 10.62L31.57 10.62L31.57 10.62Q31.57 12.06 33.35 12.06L33.35 12.06L33.35 12.06Q34.66 12.06 35.84 11.36L35.84 11.36L35.84 9.26L35.84 9.26Q34.70 9.12 33.69 9.12Z"></path></g><defs data-v-fde0c5aa=""><linearGradient data-v-fde0c5aa="" gradientTransform="rotate(25)" id="e9b037f9-7930-4e6a-9b23-c4ef0534f8d2" x1="0%" y1="0%" x2="100%" y2="0%"><stop data-v-fde0c5aa="" offset="0%" stop-color="#51A4FB" stop-opacity="1"></stop><stop data-v-fde0c5aa="" offset="100%" stop-color="#51A4FB" stop-opacity="1"></stop></linearGradient></defs><g data-v-fde0c5aa="" id="19dcfabc-d0b1-4375-8dbb-9937d5e7e9aa" stroke="none" fill="url(#e9b037f9-7930-4e6a-9b23-c4ef0534f8d2)" transform="matrix(2.2666442961221893,0,0,2.2666442961221893,40,113.73369126204497)"><path d="M9.382 8.675h13.943v13.943L32 31.293V0H.707zM22.618 23.325H8.675V9.382L0 .707V32h31.293z"></path></g><!----></svg>